Simulation
nRows=43
nColumns=15
endheader
time  TH_x TH_y TH_z SC_y  SC_z  SC_x  AC_y  AC_z  AC_x  GH_y  GH_z  GH_yy  EL_x  PS_y
1.5899999999999999  0.000000  0.000000  0.000000  -42.348107949265184  8.384778009179316  17.96881095842051  57.39795460992741  14.244644302049728  7.819356824725718  -45.14463009825531  46.36924236903423  18.785122031242427  22.355335825007312  120.000000
1.6217999999999997  0.000000  0.000000  0.000000  -42.47035897627275  8.439260426970197  18.49638773587128  57.46992995816235  14.503313374899106  7.982308976238736  -45.44615648233539  46.96057248817181  18.685223140588835  22.41319289466037  120.000000
1.6535999999999997  0.000000  0.000000  0.000000  -42.5576527630301  8.493859701523487  18.974479700741266  57.50777189922064  14.695847654427673  8.114169726669635  -45.70556872299931  47.415926252980746  18.706565189960532  22.44051308639132  120.000000
1.6853999999999998  0.000000  0.000000  0.000000  -42.618601313212345  8.538900257113893  19.405057773282344  57.52473307158543  14.833114919616259  8.209612721201662  -45.936442545118425  47.72939435651287  18.813881595077124  22.45820016572334  120.000000
1.7171999999999996  0.000000  0.000000  0.000000  -42.658472905813085  8.565801311495923  19.786826910718577  57.53182318276318  14.925411576487276  8.264568535104031  -46.14780057058551  47.89927362225754  18.98123324986562  22.477439242736246  120.000000
1.7489999999999997  0.000000  0.000000  0.000000  -42.68094002396917  8.568207035522867  20.115164327305138  57.53728786115655  14.980964124085771  8.276129592398746  -46.34192228899381  47.92715410212701  19.193916121243902  22.49863278330218  120.000000
1.7807999999999997  0.000000  0.000000  0.000000  -42.68796031200685  8.542350549913852  20.381865944546004  57.546576658927506  15.005254919039011  8.242574544204404  -46.51367983151754  47.816391197642986  19.445710975018144  22.513973258930793  120.000000
1.8125999999999998  0.000000  0.000000  0.000000  -42.68144753160769  8.487721634600529  20.57658657842805  57.562037161720895  15.000882504896966  8.16356683392545  -46.65130342300538  47.57064422778528  19.733992065617525  22.511839682501176  120.000000
1.8443999999999998  0.000000  0.000000  0.000000  -42.66237093193158  8.40690428553213  20.687572918657917  57.582785885630706  14.967733141249308  8.040469841453667  -46.73807160565677  47.192721973959785  20.054586110812675  22.481123733147847  120.000000
1.8761999999999996  0.000000  0.000000  0.000000  -42.631553725116135  8.305870235441096  20.70319479143655  57.60434918508744  14.902837184563653  7.876586141203334  -46.75410631358787  46.68416855500214  20.397574019568456  22.414589439664635  120.000000
1.9079999999999997  0.000000  0.000000  0.000000  -42.58809712913148  8.193015505616254  20.612608579732598  57.61884526790243  14.800694327115067  7.6771601263007705  -46.67869433362623  46.045497877520184  20.746272940560825  22.31030192171462  120.000000
1.9397999999999997  0.000000  0.000000  0.000000  -42.530027525040936  8.078444927821977  20.407345880741577  57.61550381755378  14.653574746421919  7.449143912355892  -46.492250332143335  45.27714277863669  21.078648874857283  22.17108746506538  120.000000
1.9715999999999996  0.000000  0.000000  0.000000  -42.45286327573429  7.972119803487857  20.08210070159117  57.58178688995456  14.452714518435055  7.200717727087759  -46.17861997018356  44.380644306191094  21.371357707262387  22.00266589988707  120.000000
2.0033999999999996  0.000000  0.000000  0.000000  -42.350531196932714  7.882730779773877  19.63654464013866  57.50462299798814  14.189850176808864  6.940678363809978  -45.72725766149506  43.35962177303236  21.604283473469543  21.811525808591192  120.000000
2.0351999999999997  0.000000  0.000000  0.000000  -42.21437484027661  7.816296036318594  19.07565832437089  57.37199138424317  13.858987260120111  6.677571282806864  -45.13486390745571  42.22024494375597  21.764589178604876  21.603018599511994  120.000000
2.0669999999999997  0.000000  0.000000  0.000000  -42.03467835644678  7.775788950504076  18.410478043761675  57.17436993376783  13.457909722565423  6.418676664473388  -44.40633760004912  40.970968367892084  21.849629495709138  21.380221790829836  120.000000
2.0987999999999998  0.000000  0.000000  0.000000  -41.80028171185279  7.761078716146351  17.65623273671229  56.905794925122535  12.98864818410767  6.16904911113622  -43.55340026372755  39.62188680384266  21.867034445410567  21.14359760226135  120.000000
2.1306  0.000000  0.000000  0.000000  -41.501170392392844  7.769237631584662  16.831191947995013  56.56435574623169  12.457576748490428  5.93095772480635  -42.59232684946196  38.18370869940897  21.83375059564123  20.89149882955608  120.000000
2.1624  0.000000  0.000000  0.000000  -41.12957420563964  7.794390630824947  15.953654328725806  56.15227571694469  11.874564363776589  5.70342343627074  -41.540203671074394  36.66708589580085  21.77320105834319  20.620561959482373  120.000000
2.1941999999999995  0.000000  0.000000  0.000000  -40.68357296533097  7.827671572857162  15.040934606506623  55.67568612876643  11.25209571020638  5.482105807433434  -40.413320833639645  35.08209739755896  21.71445788899471  20.325800768309684  120.000000
2.2259999999999995  0.000000  0.000000  0.000000  -40.167825344944255  7.857215419890834  14.107964150699996  55.14410597113131  10.604072560902914  5.259873369864642  -39.22575754697809  33.43822185932828  21.690517028650643  20.000884093424137  120.000000
2.2577999999999996  0.000000  0.000000  0.000000  -39.59469671854763  7.869396310610406  13.16790744536774  54.56958507422508  9.945148810021603  5.028605116467619  -37.990135652245314  31.744624736780906  21.738011680644455  19.638819370356412  120.000000
2.2895999999999996  0.000000  0.000000  0.000000  -38.9810668477819  7.85055609830209  12.232044521539539  53.965975405456035  9.29005118764621  4.781257217294888  -36.71968020098392  30.01087986771827  21.896698563879838  19.233356245257387  120.000000
2.3213999999999997  0.000000  0.000000  0.000000  -38.346798581386125  7.789178845990225  11.31075739812668  53.34860717104147  8.652946289821445  4.513863471481697  -35.431538945039044  28.24762772896428  22.20979930511747  18.780969217746033  120.000000
2.3531999999999997  0.000000  0.000000  0.000000  -37.71039101437748  7.677510012014766  10.413461745607803  52.7338427305902  8.046717462274941  4.22677513965454  -34.15076212159427  26.46699713630899  22.72465326999267  18.28329994562174  120.000000
2.385  0.000000  0.000000  0.000000  -37.087406435446475  7.512943496788114  9.549151142681504  52.13836812407611  7.482333403440064  3.9251209477560405  -32.91244435323198  24.68276905371521  23.491924933929425  17.749009856718118  120.000000
2.4167999999999994  0.000000  0.000000  0.000000  -36.48752389310951  7.298192346186335  8.726222809331375  51.57813587629587  6.968873401808493  3.617918409039738  -31.760254946773664  22.909928854950454  24.561716942217274  17.19399064895796  120.000000
2.4485999999999994  0.000000  0.000000  0.000000  -35.914672942467476  7.0411939754359025  7.952397160842355  51.06627854200885  6.513464486472767  3.316248921545015  -30.73969077286548  21.163799230262676  25.975141106426438  16.639364933704748  120.000000
2.4803999999999995  0.000000  0.000000  0.000000  -35.3668011903578  6.753781965676705  7.2337285770500515  50.61054562387324  6.1213454037632  3.030551709282378  -29.88663933858207  19.458300686169032  27.751600365749717  16.10825895227497  120.000000
2.5121999999999995  0.000000  0.000000  0.000000  -34.83840703120647  6.450547635051075  6.57346234579558  50.209942997046795  5.795284752952582  2.7676952555021455  -29.21243507331983  17.804163503560673  29.873117897122153  15.62308796308044  120.000000
2.5439999999999996  0.000000  0.000000  0.000000  -34.32236934903579  6.147019576015282  5.970824420443253  49.85240278775125  5.53511018589844  2.5285093311031734  -28.688980771640455  16.20686511664261  32.26990471482807  15.203616570265325  120.000000
2.5757999999999996  0.000000  0.000000  0.000000  -33.81323036916996  5.858511887426104  5.420604825464361  49.5140991287853  5.336858960172353  2.306759003578235  -28.239233421582433  14.66554660668252  34.81328316649005  14.866131711232892  120.000000
2.6075999999999997  0.000000  0.000000  0.000000  -33.3077641283729  5.598555207110311  4.91374395740699  49.162339741639315  5.192775994367688  2.0900211768876362  -27.739911986297106  13.173625593960233  37.32401466757397  14.62357232055863  120.000000
2.6393999999999997  0.000000  0.000000  0.000000  -32.805831291776215  5.377948671176323  4.43923120850491  48.761688443439425  5.091968731205043  1.8625669418317448  -27.033585506881952  11.721821775490005  39.59198565716704  14.485621955520216  120.000000
2.6712  0.000000  0.000000  0.000000  -32.30791645345831  5.203847993091601  3.9867766844955392  48.282443764969535  5.022203500487389  1.6097315992162486  -25.94587899969703  10.302634469987344  41.4017897090291  14.457943007943374  120.000000
2.7029999999999994  0.000000  0.000000  0.000000  -31.81366836891252  5.07896231877805  3.5497293389769955  47.70943494013065  4.972500460836074  1.322306843233763  -24.299919273146788  8.915506517032068  42.55389601065292  14.540671378379288  120.000000
2.7347999999999995  0.000000  0.000000  0.000000  -31.3193461913438  5.001407281517933  3.1274042334469287  47.048050498871  4.935784713209557  1.000019364729598  -21.92034128473627  7.569970135088384  42.87119166140461  14.727204737151698  120.000000
2.7665999999999995  0.000000  0.000000  0.000000  -30.819076544698326  4.965851355799218  2.7263427646748073  46.32501090403429  4.910441694734033  0.652389630854124  -18.61540906859118  6.285689105184952  42.17736404934655  15.004982760140546  120.000000
2.7983999999999996  0.000000  0.000000  0.000000  -30.306328128787047  4.964702890355812  2.359325797435228  45.58310641471597  4.900298157223182  0.29693996898904795  -14.13162083652663  5.089473757520173  40.24248777987401  15.357549429538329  120.000000
2.8301999999999996  0.000000  0.000000  0.000000  -29.777959594614114  4.989602546057965  2.0422620704190293  44.87209304438202  4.912654841270257  -0.0447370442138647  -8.073848351420635  4.011001051796776  36.69169579135903  15.766784343141678  120.000000
2.8619999999999997  0.000000  0.000000  0.000000  -29.236158642975152  5.032345913845588  1.7896469999658948  44.23774146030524  4.954989756448793  -0.3519797111127396  0.22532594685458332  3.079267082672348  30.863801057039762  16.214723357184276  120.000000
2.8937999999999997  0.000000  0.000000  0.000000  -28.69118370067185  5.085427145344133  1.61030544048601  43.71266631495928  5.031757591226336  -0.6100313364457585  11.880792544031875  2.32245450629209  21.62907510732473  16.684383869102412  120.000000
2.9255999999999993  0.000000  0.000000  0.000000  -28.16008200458122  5.142367760704119  1.5047465181392938  43.31110158756746  5.142227985530187  -0.8129818787465082  28.390485634140326  1.7721154264296775  7.453137277172571  17.159932770541666  120.000000
